<svg xmlns="http://www.w3.org/2000/svg" viewBox="0 0 1200 800" width="1200" height="800">
  <rect width="1200" height="800" fill="#fff"/>
  <g fill="#b22234">
    <rect y="0" width="1200" height="61.54"/>
    <rect y="123.08" width="1200" height="61.54"/>
    <rect y="246.16" width="1200" height="61.54"/>
    <rect y="369.24" width="1200" height="61.54"/>
    <rect y="492.32" width="1200" height="61.54"/>
    <rect y="615.4" width="1200" height="61.54"/>
    <rect y="738.48" width="1200" height="61.52"/>
  </g>
  <rect width="492" height="369" fill="#3c3b6e"/>
  <g fill="#fff">
    <g transform="translate(30,30)">
      <circle cx="20" cy="20" r="8"/>
      <circle cx="70" cy="20" r="8"/>
      <circle cx="120" cy="20" r="8"/>
      <circle cx="170" cy="20" r="8"/>
      <circle cx="220" cy="20" r="8"/>
      <circle cx="270" cy="20" r="8"/>
      <circle cx="320" cy="20" r="8"/>
      <circle cx="370" cy="20" r="8"/>
      <circle cx="420" cy="20" r="8"/>
      <circle cx="45" cy="60" r="8"/>
      <circle cx="95" cy="60" r="8"/>
      <circle cx="145" cy="60" r="8"/>
      <circle cx="195" cy="60" r="8"/>
      <circle cx="245" cy="60" r="8"/>
      <circle cx="295" cy="60" r="8"/>
      <circle cx="345" cy="60" r="8"/>
      <circle cx="395" cy="60" r="8"/>
      <circle cx="20" cy="100" r="8"/>
      <circle cx="70" cy="100" r="8"/>
      <circle cx="120" cy="100" r="8"/>
      <circle cx="170" cy="100" r="8"/>
      <circle cx="220" cy="100" r="8"/>
      <circle cx="270" cy="100" r="8"/>
      <circle cx="320" cy="100" r="8"/>
      <circle cx="370" cy="100" r="8"/>
      <circle cx="420" cy="100" r="8"/>
      <circle cx="45" cy="140" r="8"/>
      <circle cx="95" cy="140" r="8"/>
      <circle cx="145" cy="140" r="8"/>
      <circle cx="195" cy="140" r="8"/>
      <circle cx="245" cy="140" r="8"/>
      <circle cx="295" cy="140" r="8"/>
      <circle cx="345" cy="140" r="8"/>
      <circle cx="395" cy="140" r="8"/>
    </g>
  </g>
</svg>
